<?xml version="1.0" standalone="no"?>
<!DOCTYPE svg PUBLIC "-//W3C//DTD SVG 20010904//EN"
 "http://www.w3.org/TR/2001/REC-SVG-20010904/DTD/svg10.dtd">
<svg version="1.0" xmlns="http://www.w3.org/2000/svg"
 width="200.000000pt" height="200.000000pt" viewBox="0 0 200.000000 200.000000"
 preserveAspectRatio="xMidYMid meet">
<metadata>
Created by potrace 1.16, written by Peter Selinger 2001-2019
</metadata>
<g transform="translate(0.000000,200.000000) scale(0.100000,-0.100000)"
fill="#000000" stroke="none">
<path d="M695 1854 c-44 -8 -95 -22 -115 -32 -39 -19 -99 -100 -155 -208 -36
-70 -38 -72 -81 -77 -57 -6 -92 -30 -111 -75 -26 -63 2 -132 63 -158 l34 -14
0 -174 c0 -145 3 -177 16 -190 20 -20 38 -20 58 0 14 14 16 45 14 232 l-3 217
-25 3 c-50 5 -68 12 -74 28 -11 30 13 44 75 44 l58 0 35 76 c55 118 121 211
159 223 134 43 541 43 675 0 39 -13 101 -101 158 -224 l34 -74 62 -3 c44 -2
64 -8 72 -20 15 -25 -4 -40 -56 -47 l-43 -6 -3 -125 -3 -125 -81 -82 -81 -82
-19 25 c-42 53 -50 54 -418 54 -275 0 -346 -3 -368 -14 -28 -15 -372 -357
-372 -370 0 -23 24 -46 48 -46 22 0 60 33 197 170 l170 170 326 0 c303 0 327
-1 342 -18 25 -28 21 -67 -9 -91 -25 -20 -40 -21 -220 -21 -185 0 -194 -1
-204 -21 -9 -16 -8 -26 5 -45 l15 -24 188 0 c103 0 203 5 224 10 36 10 98 64
98 85 0 5 57 68 128 138 100 100 133 127 154 127 25 0 48 -23 48 -46 0 -5
-114 -122 -252 -261 l-252 -253 -321 0 -321 0 -172 -173 c-95 -95 -172 -177
-172 -181 0 -23 24 -46 48 -46 22 0 58 31 182 155 l155 155 308 0 c247 0 313
3 335 14 15 8 142 131 283 273 287 288 288 291 250 377 -22 51 -61 76 -116 76
l-35 0 0 55 c0 53 1 55 34 69 40 17 65 50 73 98 11 69 -53 138 -128 138 -34 0
-37 3 -73 73 -55 107 -116 190 -156 209 -19 9 -75 24 -124 33 -116 20 -448 19
-561 -1z"/>
<path d="M632 1499 c-91 -8 -112 -19 -112 -55 0 -37 26 -43 135 -34 55 5 201
9 325 9 124 0 270 -4 325 -9 109 -9 135 -3 135 34 0 37 -20 46 -126 56 -117
11 -563 11 -682 -1z"/>
<path d="M544 1331 c-40 -24 -58 -69 -51 -127 12 -111 153 -148 224 -59 l28
35 235 0 235 0 28 -35 c75 -94 227 -47 227 71 0 84 -47 134 -127 134 -44 0
-98 -30 -108 -59 -6 -20 -12 -21 -255 -21 -243 0 -249 1 -255 21 -17 53 -122
76 -181 40z"/>
</g>
</svg>
