<?xml version="1.0" standalone="no"?>
<!DOCTYPE svg PUBLIC "-//W3C//DTD SVG 20010904//EN"
 "http://www.w3.org/TR/2001/REC-SVG-20010904/DTD/svg10.dtd">
<svg version="1.0" xmlns="http://www.w3.org/2000/svg"
 width="700.000000pt" height="700.000000pt" viewBox="0 0 700.000000 700.000000"
 preserveAspectRatio="xMidYMid meet">
<metadata>
Created by potrace 1.14, written by Peter Selinger 2001-2017
</metadata>
<g transform="translate(0.000000,700.000000) scale(0.100000,-0.100000)"
fill="#000000" stroke="none">
<path d="M3237 6544 c-1 -1 -94 -5 -207 -9 -113 -3 -225 -8 -250 -10 -25 -2
-81 -7 -125 -10 -202 -15 -493 -79 -609 -133 -65 -30 -164 -119 -222 -197 -16
-22 -32 -42 -35 -45 -33 -27 -214 -323 -314 -515 -101 -195 -133 -228 -228
-240 -111 -14 -174 -29 -232 -56 -135 -63 -224 -202 -230 -361 -5 -124 35
-227 120 -314 46 -46 80 -66 220 -128 l30 -13 1 -494 c1 -633 8 -724 57 -777
52 -56 112 -66 168 -28 50 34 67 77 76 187 12 156 3 1393 -11 1407 -4 3 -19 8
-34 9 -245 29 -295 48 -308 119 -10 54 2 82 45 103 51 27 108 34 279 35 l143
1 38 80 c20 44 50 109 67 145 78 175 237 462 298 542 12 15 37 48 56 75 53 73
162 179 201 195 40 17 151 46 206 53 21 3 49 8 63 10 14 3 48 7 75 11 28 3 60
7 72 9 12 2 55 6 95 10 40 3 93 8 118 10 92 8 391 18 550 18 178 0 550 -11
590 -18 14 -2 61 -6 105 -9 44 -4 89 -8 100 -10 11 -2 50 -7 87 -10 105 -11
294 -52 340 -75 123 -60 299 -300 469 -641 26 -52 77 -160 114 -240 37 -80 69
-147 71 -148 1 -2 42 -6 91 -8 48 -2 120 -6 158 -8 66 -5 81 -7 148 -22 15 -3
41 -19 57 -36 75 -75 5 -148 -165 -172 -72 -10 -140 -19 -152 -19 -7 0 -13 -7
-14 -16 -1 -18 -6 -199 -13 -446 -3 -88 -5 -218 -6 -288 l-2 -128 -281 -285
c-154 -156 -284 -283 -287 -282 -4 2 -36 39 -71 82 -76 94 -130 128 -242 151
-132 26 -278 30 -1207 30 -810 0 -1128 -5 -1200 -20 -14 -3 -41 -8 -60 -11
-19 -4 -51 -20 -70 -37 -46 -39 -258 -236 -336 -312 -308 -301 -759 -756 -862
-870 -34 -39 -65 -80 -68 -92 -13 -52 74 -145 146 -157 49 -8 136 45 257 157
30 29 70 65 87 80 17 16 240 237 496 491 l465 462 985 -1 c1035 -2 1203 -6
1285 -30 67 -19 104 -65 119 -147 16 -86 -47 -194 -137 -236 -70 -33 -174 -39
-672 -41 -745 -4 -740 -3 -769 -102 -15 -48 -14 -53 6 -92 11 -23 33 -60 49
-83 l28 -41 488 3 c716 3 907 13 1000 54 55 24 180 118 228 171 20 23 46 61
56 84 18 41 49 80 164 205 66 71 519 525 570 570 81 72 151 127 188 149 85 52
189 11 231 -91 15 -34 14 -38 -6 -65 -51 -66 -378 -401 -1120 -1148 l-627
-631 -1123 1 -1123 0 -280 -281 c-567 -570 -895 -909 -917 -949 -15 -25 4 -74
44 -115 38 -38 50 -45 110 -54 36 -6 121 46 223 137 106 94 58 47 536 523
l424 422 1005 6 c553 3 1025 7 1050 9 152 14 186 24 234 63 93 77 361 339 871
849 803 803 907 917 986 1076 44 88 43 147 -6 269 -92 232 -208 314 -445 319
-52 1 -96 4 -100 6 -3 2 -5 79 -4 170 1 198 2 200 118 260 42 22 93 53 112 68
51 42 102 123 125 202 49 161 14 292 -110 416 -91 90 -202 139 -319 139 -61 0
-108 17 -138 51 -12 13 -48 74 -80 134 -32 61 -68 128 -81 150 -13 22 -26 47
-30 55 -15 33 -97 167 -145 239 -143 213 -273 347 -363 374 -11 3 -51 15 -90
27 -188 56 -382 89 -630 106 -148 10 -830 24 -838 18z"/>
<path d="M2858 5275 c-2 -2 -111 -6 -243 -9 -286 -8 -391 -15 -555 -37 -191
-27 -258 -85 -234 -206 11 -56 39 -79 108 -92 52 -9 222 -8 366 4 348 27 1275
38 1825 21 256 -8 283 -10 445 -22 58 -4 164 -8 235 -8 106 0 137 4 168 18 63
31 85 105 53 181 -23 55 -121 93 -286 110 -36 4 -78 8 -95 10 -32 4 -147 12
-305 21 -95 5 -1477 14 -1482 9z"/>
<path d="M4638 4719 c-64 -10 -133 -36 -193 -74 -55 -35 -115 -92 -115 -111 0
-6 -9 -23 -20 -37 -37 -47 -88 -50 -855 -50 -662 0 -830 5 -873 26 -15 6 -37
32 -50 57 -31 59 -63 92 -122 124 -74 40 -136 56 -235 61 -294 14 -474 -172
-451 -466 7 -95 26 -156 65 -217 74 -116 195 -187 336 -196 165 -12 303 62
430 228 l50 65 826 1 826 0 33 -47 c54 -76 151 -168 206 -196 248 -126 550
-11 629 240 34 106 18 280 -36 384 -27 55 -104 136 -149 159 -86 44 -207 63
-302 49z"/>
</g>
</svg>
